<svg xmlns="http://www.w3.org/2000/svg" viewBox="0 0 341.64 148.77"><defs><style>.cls-1{fill:#00adff;}.cls-2{fill:#d25ecf;}.cls-3{fill:#013bd6;}.cls-4{fill:#7be196;}.cls-5{fill:#f1c20f;}.cls-6{fill:#00e193;}.cls-7{fill:#000d46;}</style></defs><title>logo_1</title><g id="Layer_2" data-name="Layer 2"><g id="Layer_1-2" data-name="Layer 1"><path class="cls-1" d="M153.94,0h58.25a29.36,29.36,0,0,1,29.36,29.36v0a29.36,29.36,0,0,1-29.36,29.36H153.94a0,0,0,0,1,0,0V0A0,0,0,0,1,153.94,0Z" transform="translate(395.5 58.73) rotate(180)"/><path class="cls-2" d="M153.94,29.36h58.25a29.36,29.36,0,0,1,29.36,29.36v0a29.36,29.36,0,0,1-29.36,29.36H153.94a0,0,0,0,1,0,0V29.36A0,0,0,0,1,153.94,29.36Z"/><path class="cls-3" d="M212.19,29.35H153.94a29.36,29.36,0,0,0,29.37,29.36h58.25A29.37,29.37,0,0,0,212.19,29.35Z"/><rect class="cls-4" x="96.81" y="33.55" width="44.44" height="54.54"/><polygon class="cls-5" points="286 88.09 241.56 88.09 269.37 0 313.81 0 286 88.09"/><polygon class="cls-6" points="297.2 88.09 341.64 88.09 313.83 0 269.39 0 297.2 88.09"/><rect class="cls-5" x="96.81" width="44.44" height="44.03"/><path class="cls-2" d="M0,0H59A29.36,29.36,0,0,1,88.34,29.36v0A29.36,29.36,0,0,1,59,58.73H0a0,0,0,0,1,0,0V0A0,0,0,0,1,0,0Z"/><rect class="cls-1" y="58.73" width="44.44" height="29.36"/><path class="cls-2" d="M0,29.53H88.34a0,0,0,0,1,0,0v0A29.36,29.36,0,0,1,59,58.89H0a0,0,0,0,1,0,0V29.53A0,0,0,0,1,0,29.53Z"/><rect class="cls-3" width="44.44" height="58.73"/><rect class="cls-3" x="96.81" y="29.53" width="44.44" height="29.36"/><path class="cls-3" d="M291.57,58.71a29.48,29.48,0,0,0,29.48-29.48h-59A29.48,29.48,0,0,0,291.57,58.71Z"/><path class="cls-7" d="M5.68,143.58Q.4,138.4.4,128.87V105.19H12.49v23.32q0,10.25,8.12,10.25t8.05-10.25V105.19H40.57v23.68q0,9.52-5.28,14.71t-14.81,5.19Q11,148.77,5.68,143.58Z"/><path class="cls-7" d="M72.94,133l-4.6,4.92v10.89H56.13V105.19H68.34v18.12l16.87-18.12H98.78L81,124.49l18.75,24.28H85.4Z"/><path class="cls-7" d="M130.13,137.19h-6.72v11.58H111.08V105.19H131a24.84,24.84,0,0,1,10.28,2,15.85,15.85,0,0,1,6.88,22.41,14.9,14.9,0,0,1-6.32,5.51l9.4,13.7H138ZM136,116.58q-1.92-1.68-5.72-1.68h-6.85v12.76h6.85c2.53,0,4.44-.54,5.72-1.65a5.81,5.81,0,0,0,1.93-4.7A5.93,5.93,0,0,0,136,116.58Z"/><path class="cls-7" d="M193.83,140.3H175.4L172,148.77H159.4l19.24-43.58h12.14l19.3,43.58H197.25Zm-3.61-9.09-5.61-13.94L179,131.21Z"/><path class="cls-7" d="M221,105.19h12.33v43.58H221Z"/><path class="cls-7" d="M290.46,105.19v43.58H280.31l-19.24-23.22v23.22H249V105.19h10.15l19.24,23.22V105.19Z"/><path class="cls-7" d="M341.64,139.25v9.52h-35V105.19h34.18v9.52h-22v7.35h19.37v9.22H318.85v8Z"/></g></g></svg>