<svg xmlns="http://www.w3.org/2000/svg" viewBox="0 0 341.64 148.77"><defs><style>.cls-1{fill:#00adff}.cls-2{fill:#d25ecf}.cls-3{fill:#013bd6}.cls-5{fill:#f1c20f}</style></defs><g id="Layer_2" data-name="Layer 2"><g id="Layer_1-2" data-name="Layer 1"><path class="cls-1" d="M153.94 0h58.25a29.36 29.36 0 0 1 29.36 29.36 29.36 29.36 0 0 1-29.36 29.36h-58.25V0z" transform="rotate(180 197.75 29.365)"/><path class="cls-2" d="M153.94 29.36h58.25a29.36 29.36 0 0 1 29.36 29.36 29.36 29.36 0 0 1-29.36 29.36h-58.25V29.36z"/><path class="cls-3" d="M212.19 29.35h-58.25a29.36 29.36 0 0 0 29.37 29.36h58.25a29.37 29.37 0 0 0-29.37-29.36z"/><path fill="#7be196" d="M96.81 33.55h44.44v54.54H96.81z"/><path class="cls-5" d="M286 88.09h-44.44L269.37 0h44.44L286 88.09z"/><path fill="#00e193" d="M297.2 88.09h44.44L313.83 0h-44.44l27.81 88.09z"/><path class="cls-5" d="M96.81 0h44.44v44.03H96.81z"/><path class="cls-2" d="M0 0h59a29.36 29.36 0 0 1 29.34 29.36A29.36 29.36 0 0 1 59 58.73H0V0z"/><path class="cls-1" d="M0 58.73h44.44v29.36H0z"/><path class="cls-2" d="M0 29.53h88.34A29.36 29.36 0 0 1 59 58.89H0V29.53z"/><path class="cls-3" d="M0 0h44.44v58.73H0zm96.81 29.53h44.44v29.36H96.81zm194.76 29.18a29.48 29.48 0 0 0 29.48-29.48h-59a29.48 29.48 0 0 0 29.52 29.48z"/><path d="M5.68 143.58Q.4 138.4.4 128.87v-23.68h12.09v23.32q0 10.25 8.12 10.25t8.05-10.25v-23.32h11.91v23.68q0 9.52-5.28 14.71t-14.81 5.19q-9.48 0-14.8-5.19zM72.94 133l-4.6 4.92v10.89H56.13v-43.62h12.21v18.12l16.87-18.12h13.57L81 124.49l18.75 24.28H85.4zm57.19 4.19h-6.72v11.58h-12.33v-43.58H131a24.84 24.84 0 0 1 10.28 2 15.85 15.85 0 0 1 6.88 22.41 14.9 14.9 0 0 1-6.32 5.51l9.4 13.7H138zm5.87-20.61q-1.92-1.68-5.72-1.68h-6.85v12.76h6.85c2.53 0 4.44-.54 5.72-1.65a5.81 5.81 0 0 0 1.93-4.7 5.93 5.93 0 0 0-1.93-4.73zm57.83 23.72H175.4l-3.4 8.47h-12.6l19.24-43.58h12.14l19.3 43.58h-12.83zm-3.61-9.09l-5.61-13.94-5.61 13.94zM221 105.19h12.33v43.58H221zm69.46 0v43.58h-10.15l-19.24-23.22v23.22H249v-43.58h10.15l19.24 23.22v-23.22zm51.18 34.06v9.52h-35v-43.58h34.18v9.52h-22v7.35h19.37v9.22h-19.34v8z" fill="#000d46"/></g></g></svg>