<?xml version="1.0" encoding="UTF-8"?>
<svg width="116px" height="113px" viewBox="0 0 116 113" version="1.1" xmlns="http://www.w3.org/2000/svg" xmlns:xlink="http://www.w3.org/1999/xlink">
    <!-- Generator: sketchtool 52.4 (67378) - http://www.bohemiancoding.com/sketch -->
    <title>E348A60E-BB9C-44A1-86D7-4084796F048B</title>
    <desc>Created with sketchtool.</desc>
    <g id="Page-1" stroke="none" stroke-width="1" fill="none" fill-rule="evenodd">
        <g id="HOME" transform="translate(-303.000000, -2488.000000)" fill-rule="nonzero">
            <g id="Group-13" transform="translate(250.000000, 2444.000000)">
                <g id="mail" transform="translate(53.000000, 43.000000)">
                    <path d="M0,44 L115,44 L115,112 C115,113.104569 114.104569,114 113,114 L2,114 C0.8954305,114 1.3527075e-16,113.104569 0,112 L0,44 Z" id="Rectangle" fill="#FFC300"></path>
                    <path d="M0.536679981,43.8351279 L56.6246908,85.8643783 C57.3355282,86.3970405 58.3125105,86.3970405 59.023348,85.8643783 L115.111359,43.8351279 L0.536679981,43.8351279 Z" id="Path-4" fill="#000D46"></path>
                    <path d="M0.536679981,0.835127853 L56.6246908,42.8643783 C57.3355282,43.3970405 58.3125105,43.3970405 59.023348,42.8643783 L115.111359,0.835127853 L0.536679981,0.835127853 Z" id="Path-4-Copy" fill="#00E193" transform="translate(57.824019, 22.299108) scale(1, -1) translate(-57.824019, -22.299108) "></path>
                </g>
            </g>
        </g>
    </g>
</svg>